<svg xmlns="http://www.w3.org/2000/svg" width="18" height="18" fill="none" viewBox="0 0 18 18">
  <path fill="#226CE9" d="m8.71 6.742-.5-.5 1.52-1.524H6.17v-.726h3.56L8.207 2.468l.504-.5 2.386 2.387L8.71 6.742Zm-3.406 8.584c-.306 0-.564-.105-.774-.314a1.054 1.054 0 0 1-.314-.775c0-.306.104-.563.314-.773.21-.21.468-.315.774-.315s.564.105.774.315c.21.21.315.467.315.773s-.105.564-.315.775c-.21.21-.468.314-.774.314Zm6.812 0c-.306 0-.564-.105-.774-.314a1.053 1.053 0 0 1-.315-.775c0-.306.105-.563.315-.773.21-.21.468-.315.774-.315.305 0 .564.105.774.315.21.21.315.467.314.773a1.063 1.063 0 0 1-.314.775c-.209.21-.467.315-.774.314ZM1.452 2.541v-.726h1.776l2.974 6.253h4.815a.404.404 0 0 0 .224-.063c.065-.042.12-.1.167-.174l2.537-4.565h.828l-2.747 4.961a1.175 1.175 0 0 1-.409.416 1.045 1.045 0 0 1-.554.15H5.88l-.882 1.62c-.074.111-.077.232-.007.363.07.13.175.196.314.196h7.9v.726h-7.9c-.423 0-.74-.178-.95-.534a1.019 1.019 0 0 1-.013-1.078l1.092-1.945-2.669-5.6H1.452Z"/>
</svg>
