<svg xmlns="http://www.w3.org/2000/svg" width="17" height="16" fill="none" viewBox="0 0 17 16">
  <g clip-path="url(#a)">
    <path fill="#226CE9" d="M8.49 14.323a.677.677 0 0 1 .678-.678h5.419a.226.226 0 0 0 .226-.226V2.581a.226.226 0 0 0-.226-.226h-5.42a.677.677 0 0 1 0-1.355h5.42c.873 0 1.58.708 1.58 1.58v10.84a1.58 1.58 0 0 1-1.58 1.58h-5.42a.678.678 0 0 1-.677-.677Z"/>
    <path fill="#226CE9" d="M1.49 9.007a.903.903 0 0 0 .903.903H6.78c.02.322.046.641.077.963l.027.276a.649.649 0 0 0 .926.522 15.214 15.214 0 0 0 4.412-3.197l.027-.028a.651.651 0 0 0 0-.901l-.027-.028A15.213 15.213 0 0 0 7.81 4.32a.648.648 0 0 0-.926.522l-.027.276c-.03.32-.057.64-.077.962H2.393a.903.903 0 0 0-.903.904v2.023Z"/>
  </g>
  <defs>
    <clipPath id="a">
      <path fill="#fff" d="M.5 0h16v16H.5z"/>
    </clipPath>
  </defs>
</svg>
