<svg xmlns="http://www.w3.org/2000/svg" width="16" height="16" fill="none" viewBox="0 0 16 16">
  <path fill="#226CE9" d="M13.563 11.437h-1.099a.246.246 0 0 0-.192.091 5.528 5.528 0 0 1-4.266 2.003 5.512 5.512 0 0 1-3.915-1.62 5.52 5.52 0 0 1-1.188-1.758A5.477 5.477 0 0 1 2.47 8a5.505 5.505 0 0 1 1.62-3.911 5.529 5.529 0 0 1 3.915-1.62 5.529 5.529 0 0 1 4.266 2.003c.047.058.119.09.192.09h1.098c.099 0 .16-.109.105-.192A6.721 6.721 0 0 0 7.99 1.281 6.711 6.711 0 0 0 1.281 8.07a6.723 6.723 0 0 0 6.725 6.65 6.723 6.723 0 0 0 5.661-3.09.125.125 0 0 0-.104-.192Zm1.389-3.536-2.218-1.75a.125.125 0 0 0-.203.099v1.187H7.625a.125.125 0 0 0-.125.125v.875c0 .07.056.125.125.125h4.906V9.75c0 .105.122.164.203.098l2.218-1.75a.125.125 0 0 0 0-.197Z"/>
</svg>
