<svg width="20" height="20" viewBox="0 0 20 20" fill="none" xmlns="http://www.w3.org/2000/svg">
<g clip-path="url(#clip0_74_679)">
<path d="M9.99999 1.66675C5.39761 1.66675 1.66666 5.39771 1.66666 10.0001C1.66666 14.6024 5.39761 18.3334 9.99999 18.3334C14.6023 18.3334 18.3333 14.6024 18.3333 10.0001C18.3333 5.39771 14.6023 1.66675 9.99999 1.66675Z" stroke="#292929" stroke-opacity="0.65" stroke-width="2" stroke-linecap="round" stroke-linejoin="round"/>
<path d="M3.55917 15.2882C3.55917 15.2882 5.41669 12.9167 10 12.9167C14.5833 12.9167 16.4409 15.2882 16.4409 15.2882" stroke="#292929" stroke-opacity="0.65" stroke-width="2" stroke-linecap="round" stroke-linejoin="round"/>
<path d="M10 10C11.3807 10 12.5 8.88075 12.5 7.5C12.5 6.11929 11.3807 5 10 5C8.61925 5 7.5 6.11929 7.5 7.5C7.5 8.88075 8.61925 10 10 10Z" stroke="#292929" stroke-opacity="0.65" stroke-width="2" stroke-linecap="round" stroke-linejoin="round"/>
</g>
<defs>
<clipPath id="clip0_74_679">
<rect width="20" height="20" fill="white"/>
</clipPath>
</defs>
</svg>
