<svg xmlns="http://www.w3.org/2000/svg" width="20" height="20" fill="none" viewBox="0 0 20 20">
  <g clip-path="url(#a)">
    <path stroke="#292929" stroke-linecap="round" stroke-linejoin="round" stroke-opacity=".65" stroke-width="2" d="M10 12.5a2.5 2.5 0 1 0 0-5 2.5 2.5 0 0 0 0 5Z"/>
    <path stroke="#292929" stroke-linecap="round" stroke-linejoin="round" stroke-opacity=".65" stroke-width="2" d="m16.352 8.663-.915-2.209L16.667 5 15 3.333 13.554 4.57l-2.256-.927-.519-1.975H9.151l-.527 2-2.204.93L5 3.333 3.333 5l1.211 1.49-.9 2.215-1.977.462v1.666l2 .547.93 2.203L3.332 15 5 16.667l1.493-1.217 2.171.894.503 1.99h1.666l.504-1.99 2.209-.914c.368.263 1.454 1.237 1.454 1.237L16.667 15l-1.237-1.459.915-2.21 1.988-.517V9.167l-1.981-.504Z"/>
  </g>
  <defs>
    <clipPath id="a">
      <path fill="#fff" d="M0 0h20v20H0z"/>
    </clipPath>
  </defs>
</svg>
